<svg width="42" height="35" viewBox="0 0 42 35" fill="none" xmlns="http://www.w3.org/2000/svg">
<path d="M12.9964 13.2322C12.9278 12.477 12.6223 11.89 12.0799 11.4712C11.5444 11.0456 10.7789 10.8327 9.78338 10.8327C9.12429 10.8327 8.57505 10.9186 8.13565 11.0902C7.69626 11.2618 7.36671 11.4987 7.14702 11.8008C6.92732 12.096 6.81404 12.4358 6.80717 12.8203C6.79344 13.1361 6.85523 13.4142 6.99254 13.6545C7.13672 13.8948 7.34268 14.1076 7.61044 14.293C7.88506 14.4715 8.21461 14.6294 8.59908 14.7667C8.98355 14.904 9.41607 15.0241 9.89666 15.1271L11.7092 15.5391C12.7527 15.7656 13.6727 16.0677 14.4691 16.4453C15.2724 16.8229 15.9452 17.2726 16.4876 17.7944C17.0368 18.3162 17.4522 18.9169 17.7337 19.5966C18.0152 20.2763 18.1593 21.0384 18.1662 21.8828C18.1593 23.2147 17.8229 24.3578 17.157 25.3121C16.491 26.2665 15.5333 26.9976 14.2837 27.5057C13.0411 28.0137 11.541 28.2678 9.78338 28.2678C8.01894 28.2678 6.48106 28.0034 5.16974 27.4748C3.85843 26.9461 2.8389 26.1429 2.11115 25.065C1.3834 23.9871 1.00923 22.6243 0.988636 20.9766H5.87003C5.91122 21.6562 6.09316 22.2227 6.41584 22.6758C6.73852 23.1289 7.18134 23.4722 7.74432 23.7056C8.31416 23.939 8.97325 24.0558 9.72159 24.0558C10.4081 24.0558 10.9917 23.9631 11.4723 23.7777C11.9598 23.5923 12.3339 23.3349 12.5948 23.0053C12.8557 22.6758 12.9896 22.2982 12.9964 21.8725C12.9896 21.4743 12.866 21.1345 12.6257 20.853C12.3854 20.5646 12.0147 20.3175 11.5135 20.1115C11.0192 19.8987 10.3875 19.703 9.61861 19.5245L7.41477 19.0096C5.58854 18.5908 4.15021 17.9145 3.09979 16.9808C2.04936 16.0402 1.52758 14.7701 1.53445 13.1705C1.52758 11.866 1.87772 10.7229 2.58487 9.74112C3.29202 8.75935 4.27036 7.99384 5.51989 7.4446C6.76941 6.89536 8.19401 6.62074 9.79368 6.62074C11.4277 6.62074 12.8454 6.89879 14.0469 7.4549C15.2552 8.00414 16.1924 8.77652 16.8583 9.77202C17.5243 10.7675 17.8641 11.9209 17.8778 13.2322H12.9964Z" fill="white"/>
<path d="M21.2592 20.4496L26.4084 20.4496C26.477 20.9782 26.6178 21.4554 26.8306 21.881C27.0434 22.3067 27.3249 22.6706 27.6751 22.9727C28.0252 23.2747 28.4406 23.5047 28.9212 23.6626C29.3949 23.8274 29.9201 23.9098 30.4968 23.9098C31.5198 23.9098 32.402 23.6592 33.1435 23.158C33.8781 22.6568 34.4445 21.9325 34.8427 20.9851C35.234 20.0376 35.4297 18.8911 35.4297 17.5455C35.4297 16.1449 35.2306 14.9709 34.8324 14.0234C34.4273 13.0829 33.8609 12.3723 33.1332 11.8917C32.3986 11.418 31.5301 11.1811 30.5277 11.1811C29.9647 11.1811 29.4532 11.2532 28.9933 11.3974C28.5264 11.5415 28.1179 11.7509 27.7678 12.0256C27.4107 12.3071 27.119 12.6469 26.8924 13.0451C26.659 13.4502 26.4976 13.9067 26.4084 14.4148L21.2592 14.3839C21.3485 13.4502 21.6197 12.5302 22.0728 11.6239C22.5191 10.7177 23.1335 9.89039 23.9162 9.14204C24.6989 8.40057 25.6532 7.81013 26.7791 7.37074C27.8982 6.93134 29.1821 6.71165 30.6307 6.71165C32.5393 6.71165 34.2488 7.13044 35.7592 7.96804C37.2628 8.8125 38.4505 10.0414 39.3224 11.6548C40.1944 13.2682 40.6303 15.2318 40.6303 17.5455C40.6303 19.866 40.1875 21.833 39.3018 23.4464C38.4162 25.0598 37.2182 26.2853 35.7077 27.1229C34.1973 27.9605 32.505 28.3793 30.6307 28.3793C29.3537 28.3793 28.1728 28.2008 27.0881 27.8437C26.0033 27.4936 25.049 26.9787 24.2251 26.299C23.4013 25.6262 22.7319 24.7989 22.217 23.8171C21.7021 22.8353 21.3828 21.7128 21.2592 20.4496Z" fill="#F1DD23"/>
</svg>
