<svg width="916" height="752" viewBox="0 0 916 752" fill="none" xmlns="http://www.w3.org/2000/svg">
<g clip-path="url(#clip0_341_286)">
<rect width="916" height="752" rx="159" fill="white"/>
<path d="M199.413 295.7H184.853H170.302H155.752H141.202H126.651H112.101H97.5703V292.28H97.77V292.26H199.416V292.28H199.423V295.7H199.413L208.37 300.876V278.714C208.37 273.558 204.418 269.373 199.536 269.373H97.6452C92.7626 269.373 88.8111 273.558 88.8111 278.714V300.951L97.5479 295.697L55.8536 320.859V331.405C55.8536 338.815 61.8371 344.833 69.2084 344.833C75.037 344.833 79.9471 341.045 81.7668 335.803C82.9201 339.528 85.4612 342.611 88.8111 344.461V466.463C88.8111 471.622 92.7626 475.804 97.6452 475.804H199.538C204.418 475.804 208.372 471.622 208.372 466.463V345.227C212.448 343.535 215.559 340.058 216.874 335.788C218.689 341.037 223.604 344.833 229.438 344.833C236.809 344.833 242.792 338.815 242.792 331.405V320.859L199.413 295.7ZM134.781 277.723H162.392C164.414 277.723 166.049 279.385 166.049 281.408C166.049 283.434 164.416 285.096 162.392 285.096H134.781C132.767 285.096 131.134 283.434 131.134 281.408C131.134 279.385 132.767 277.723 134.781 277.723ZM186.75 297.228L214.161 319.312H189.373H188.2L171.461 297.228H186.75ZM140.882 297.228H156.171L162.257 319.312H136.289L140.882 297.228ZM135.967 320.859H162.684V331.405C162.684 338.815 156.701 344.833 149.322 344.833C141.95 344.833 135.967 338.815 135.967 331.405V320.859ZM110.306 297.228H125.595L110.338 319.312H109.27H84.3778L110.306 297.228ZM95.9153 344.833C94.7147 344.833 93.5664 344.627 92.4631 344.323C92.2409 344.263 92.0212 344.188 91.8041 344.117C90.7482 343.763 89.7297 343.321 88.8111 342.732V342.737C85.0643 340.357 82.5606 336.184 82.5606 331.405V320.859H109.268V331.405C109.268 338.178 104.253 343.731 97.765 344.644C97.1609 344.72 96.5519 344.833 95.9153 344.833ZM148.59 470.533C145.428 470.533 142.872 467.954 142.872 464.781C142.872 461.611 145.425 459.03 148.59 459.03C151.743 459.03 154.309 461.611 154.309 464.781C154.309 467.954 151.743 470.533 148.59 470.533ZM199.413 454.486H97.7675V346.173C103.611 345.43 108.359 341.303 110.059 335.79C111.874 341.037 116.781 344.833 122.622 344.833C128.451 344.833 133.354 341.045 135.171 335.805C137.055 341.891 142.649 346.362 149.319 346.362C156.002 346.362 161.593 341.883 163.47 335.793C165.283 341.04 170.183 344.833 176.016 344.833C181.865 344.833 186.77 341.037 188.58 335.79C190.135 340.839 194.234 344.762 199.408 345.957V454.486H199.413ZM216.08 331.405C216.08 336.782 212.91 341.394 208.365 343.535C206.637 344.336 204.748 344.833 202.726 344.833C201.567 344.833 200.474 344.622 199.411 344.356V344.366C193.652 342.875 189.371 337.658 189.371 331.405V320.859H216.08V331.405Z" fill="black"/>
<path d="M303.775 0H280.408V752H303.775V0Z" fill="#FFC50E"/>
<path d="M468.053 190.806C516.197 190.806 546.727 221.116 561.209 247.883L518.937 273.076C504.063 252.213 489.581 241.585 468.053 241.585C448.874 241.585 434.783 253 434.783 268.746C434.783 284.491 443.785 292.757 465.313 300.63L484.101 307.322C544.77 328.972 568.646 356.133 568.646 393.921C568.646 449.424 516.197 476.978 469.619 476.978C420.301 476.978 381.942 447.456 368.634 408.88L412.472 385.655C422.258 405.731 438.697 425.019 469.619 425.019C491.929 425.019 509.151 415.178 509.151 394.709C509.151 375.027 497.409 366.367 467.662 354.952L450.831 349.047C410.515 334.483 378.028 314.407 378.028 266.384C378.028 222.297 419.126 190.806 468.053 190.806ZM835.981 441.551C811.714 463.595 779.226 475.01 742.825 475.01C666.108 475.01 599.959 417.146 599.959 333.302C599.959 249.457 666.108 191.593 742.825 191.593C778.835 191.593 810.931 203.402 834.415 224.265L799.971 263.235C785.489 253 765.918 245.521 745.956 245.521C696.638 245.521 659.454 282.129 659.454 333.302C659.454 384.474 696.638 421.082 745.956 421.082C766.701 421.082 787.055 413.21 801.928 401.401L835.981 441.551Z" fill="#FFC50E"/>
<path d="M400.234 552.051C400.234 554.782 399.415 557.213 397.779 559.345C396.18 561.365 393.976 562.935 391.168 564.057C388.36 565.18 385.19 565.741 381.657 565.741C378.421 565.741 375.279 564.983 372.229 563.468C369.179 561.954 366.613 559.85 364.531 557.157L368.882 553.061C372.489 557.437 376.748 559.625 381.657 559.625C383.814 559.625 385.785 559.364 387.57 558.84C389.541 558.241 391.066 557.4 392.145 556.315C393.372 555.118 393.986 553.697 393.986 552.051C393.986 550.069 393.372 548.573 392.145 547.563C391.103 546.703 389.56 546.142 387.514 545.88C386.324 545.731 384.372 545.656 381.657 545.656C376.673 545.656 372.871 544.739 370.249 542.907C367.627 541.074 366.316 538.381 366.316 534.828C366.316 532.584 366.976 530.452 368.296 528.432C369.616 526.413 371.429 524.804 373.735 523.607C376.115 522.336 378.756 521.7 381.657 521.7C384.93 521.7 387.886 522.205 390.527 523.215C393.353 524.299 395.975 526.001 398.393 528.32L394.599 532.808C392.331 530.976 390.266 529.695 388.407 528.965C386.547 528.236 384.297 527.871 381.657 527.871C380.132 527.871 378.709 528.189 377.389 528.825C376.069 529.461 375.018 530.312 374.237 531.378C373.456 532.444 373.066 533.575 373.066 534.772C373.066 537.988 376.022 539.597 381.936 539.597C386.659 539.597 390.397 540.083 393.149 541.055C395.752 541.99 397.612 543.412 398.727 545.319C399.731 547.002 400.234 549.246 400.234 552.051ZM444.695 536.006L430.47 553.117L416.356 536.006V564.787H410.387V528.825L405.533 522.934H413.399L430.414 543.468L447.652 522.934H455.517L450.664 528.825V564.787H444.695V536.006ZM477.162 527.366L474.875 522.205H481.569L501.597 564.787H494.791L492.057 558.672H479.394C477.014 558.672 474.875 558.896 472.978 559.345C471.305 559.756 469.91 560.299 468.794 560.972C467.79 561.57 467.121 562.187 466.786 562.823L465.726 564.787H459.144L477.162 527.366ZM481.625 552.5H489.324L480.231 534.828L471.026 554.857C471.844 554.146 473.09 553.585 474.764 553.174C476.66 552.725 478.948 552.5 481.625 552.5ZM515.487 529.049V542.963C516.64 542.29 517.923 541.841 519.337 541.616C520.378 541.429 521.717 541.336 523.353 541.336H531.275C533.469 541.336 535.18 540.831 536.407 539.821C537.709 538.736 538.36 537.109 538.36 534.94C538.36 532.883 537.672 531.35 536.295 530.34C535.105 529.48 533.432 529.049 531.275 529.049H515.487ZM533.283 558.167L528.207 547.451H523.353C521.828 547.451 520.489 547.545 519.337 547.732C517.923 547.993 516.64 548.442 515.487 549.078V564.787H509.407V522.934H531.275C533.841 522.934 536.11 523.42 538.081 524.393C540.052 525.365 541.577 526.749 542.655 528.544C543.808 530.452 544.384 532.696 544.384 535.277C544.384 538.419 543.548 540.999 541.874 543.019C540.201 545.039 537.839 546.441 534.789 547.227L538.025 553.903C538.955 555.287 539.68 556.259 540.201 556.82C540.833 557.531 541.437 558.008 542.014 558.251C542.59 558.494 543.343 558.615 544.273 558.615H544.887L546.225 558.559V564.787C544.068 564.787 542.469 564.712 541.428 564.562C539.68 564.263 538.192 563.683 536.965 562.823C535.514 561.776 534.287 560.224 533.283 558.167ZM587.228 529.106H572.556V564.787H566.643V529.106H551.804V522.934H587.228V529.106ZM630.685 528.32L626.78 532.92C625.255 531.35 623.433 530.115 621.313 529.218C619.193 528.32 616.962 527.871 614.619 527.871C611.569 527.871 608.789 528.563 606.279 529.947C603.769 531.331 601.807 533.22 600.394 535.613C598.943 538.119 598.218 540.906 598.218 543.973C598.218 546.89 598.999 549.583 600.561 552.051C602.049 554.37 604.048 556.212 606.558 557.578C609.068 558.943 611.774 559.625 614.675 559.625C617.352 559.625 619.844 559.046 622.15 557.886C624.456 556.727 626.371 555.118 627.896 553.061L631.634 558.167C629.514 560.56 626.976 562.421 624.019 563.749C621.062 565.077 617.929 565.741 614.619 565.741C610.491 565.741 606.697 564.731 603.239 562.711C599.854 560.766 597.195 558.092 595.261 554.688C593.253 551.21 592.249 547.395 592.249 543.243C592.249 539.241 593.309 535.557 595.429 532.191C597.437 528.975 600.161 526.422 603.601 524.533C607.041 522.644 610.733 521.7 614.675 521.7C617.762 521.7 620.7 522.298 623.489 523.495C626.204 524.617 628.603 526.226 630.685 528.32ZM676.541 543.58C676.541 540.588 675.779 537.876 674.254 535.445C672.804 533.089 670.823 531.237 668.313 529.891C665.803 528.544 663.078 527.871 660.14 527.871C657.091 527.871 654.311 528.563 651.8 529.947C649.29 531.331 647.328 533.22 645.915 535.613C644.464 538.119 643.739 540.906 643.739 543.973C643.739 546.89 644.52 549.583 646.082 552.051C647.57 554.37 649.569 556.212 652.079 557.578C654.59 558.943 657.305 559.625 660.224 559.625C663.143 559.625 665.858 558.915 668.369 557.493C670.879 556.072 672.86 554.165 674.31 551.771C675.798 549.265 676.541 546.535 676.541 543.58ZM682.566 543.917C682.566 547.956 681.525 551.677 679.442 555.081C677.434 558.335 674.71 560.925 671.27 562.851C667.829 564.777 664.12 565.741 660.14 565.741C656.012 565.741 652.219 564.731 648.76 562.711C645.376 560.766 642.717 558.092 640.783 554.688C638.774 551.21 637.77 547.395 637.77 543.243C637.77 539.241 638.83 535.557 640.95 532.191C642.958 528.975 645.682 526.422 649.123 524.533C652.563 522.644 656.254 521.7 660.196 521.7C664.25 521.7 668.006 522.691 671.465 524.673C674.849 526.618 677.527 529.255 679.498 532.584C681.544 536.062 682.566 539.84 682.566 543.917ZM727.586 536.006L713.36 553.117L699.246 536.006V564.787H693.277V528.825L688.424 522.934H696.29L713.304 543.468L730.542 522.934H738.408L733.555 528.825V564.787H727.586V536.006Z" fill="black"/>
</g>
<defs>
<clipPath id="clip0_341_286">
<rect width="916" height="752" rx="159" fill="white"/>
</clipPath>
</defs>
</svg>
